<svg xmlns="http://www.w3.org/2000/svg" xmlns:xlink="http://www.w3.org/1999/xlink" width="343" height="426" viewBox="0 0 343 426">
  <defs>
    <filter id="Rectangle_38" x="0" y="0" width="343" height="426" filterUnits="userSpaceOnUse">
      <feOffset dx="1" dy="6" input="SourceAlpha"/>
      <feGaussianBlur stdDeviation="4" result="blur"/>
      <feFlood flood-opacity="0.161"/>
      <feComposite operator="in" in2="blur"/>
      <feComposite in="SourceGraphic"/>
    </filter>
  </defs>
  <g id="itro1" transform="translate(-17 -61)">
    <g id="itro1-2" data-name="itro1">
      <g transform="matrix(1, 0, 0, 1, 17, 61)" filter="url(#Rectangle_38)">
        <rect id="Rectangle_38-2" data-name="Rectangle 38" width="319" height="402" rx="13" transform="translate(11 6)" fill="#ecf0f1"/>
      </g>
      <rect id="Rectangle_39" data-name="Rectangle 39" width="319" height="226" rx="13" transform="translate(28 67)" fill="#dfffe9"/>
      <text id="List_your_experiences_and_make_more_money." data-name="List your experiences and make more 
money." transform="translate(50 321)" fill="#111822" font-size="15" font-family="Montserrat-Bold, Montserrat" font-weight="700"><tspan x="0" y="0">List your experiences and make more </tspan><tspan x="0" y="19">money.</tspan></text>
      <text id="People_come_here_to_browser_experience_the_more_you_list_the_higher_the_bookings_you_can_make." data-name="People come here to browser 
experience, the more you 
list the higher the bookings 
 you can  make." transform="translate(46 373)" fill="#111822" font-size="17" font-family="Montserrat-Regular, Montserrat"><tspan x="0" y="0">People come here to browser </tspan><tspan x="0" y="20">experience, the more you </tspan><tspan x="0" y="40">list the higher the bookings </tspan><tspan x="0" y="60" xml:space="preserve"> you can  make.</tspan></text>
    </g>
    <g id="undraw_travelers_qlt1" transform="translate(130 105.995)">
      <ellipse id="Ellipse_99" data-name="Ellipse 99" cx="8.645" cy="6.743" rx="8.645" ry="6.743" transform="translate(37.01 1.62)" fill="#3f3d56"/>
      <circle id="Ellipse_100" data-name="Ellipse 100" cx="12.449" cy="12.449" r="12.449" transform="translate(50.496 18.735)" fill="#3f3d56"/>
      <circle id="Ellipse_101" data-name="Ellipse 101" cx="3.111" cy="3.111" r="3.111" transform="translate(99.338 138.467)" fill="#3f3d56"/>
      <circle id="Ellipse_102" data-name="Ellipse 102" cx="3.111" cy="3.111" r="3.111" transform="translate(83.087 138.467)" fill="#3f3d56"/>
      <rect id="Rectangle_234" data-name="Rectangle 234" width="1.383" height="38.21" transform="translate(89.656 66.542)" fill="#3f3d56"/>
      <rect id="Rectangle_235" data-name="Rectangle 235" width="1.383" height="38.21" transform="translate(97.089 66.542)" fill="#3f3d56"/>
      <path id="Path_2026" data-name="Path 2026" d="M745.756,404l-.346-1.037a6.764,6.764,0,0,1,9.163-.871l-.346,1.558h-1.383s-2.246-1.884-6.05.268Z" transform="translate(-655.763 -336.421)" fill="#3f3d56"/>
      <rect id="Rectangle_236" data-name="Rectangle 236" width="12.449" height="15.906" transform="translate(54.299 61.096)" fill="#fbbebe"/>
      <rect id="Rectangle_237" data-name="Rectangle 237" width="3.804" height="7.608" transform="translate(71.589 56.599)" fill="#fbbebe"/>
      <path id="Path_2027" data-name="Path 2027" d="M584.754,740.056l-1.555,4.669s-.693,3.457,1.555,3.63a29.079,29.079,0,0,0,5.882-.519,4.985,4.985,0,0,0,0-2.939c-.518-1.383-2.074-5.187-2.074-5.187Z" transform="translate(-528.812 -601.59)" fill="#3c354c"/>
      <path id="Path_2028" data-name="Path 2028" d="M640.181,742.09s-2.42,6.052-.518,7.089,4.5.172,6.571,1.037,7.78-1.209,7.78-1.209.693-1.9-3.111-2.42c0,0-4.139-3.113-4.139-3.8s-2.42-.693-2.42-.693Z" transform="translate(-572.483 -603.451)" fill="#3c354c"/>
      <path id="Path_2029" data-name="Path 2029" d="M572.442,424.238s-14.176,2.939-15.9,2.074-3.457,11.764-3.457,11.764a61.11,61.11,0,0,0,1.728,17.808c2.42,10.2,0,15.215,0,15.215s.346,9.682,2.941,14.178a19.054,19.054,0,0,1,2.593,8.645s5.011.519,5.187-.693a23.121,23.121,0,0,1-1.73-9.335c.346-4.494-1.037-13.141-1.037-13.141s2.248-10.893,1.9-15.032,1.211-12.967,2.074-11.411,3.113,9.163,3.113,10.721.871,11.928,1.383,12.621.344,2.767.172,3.8a62.779,62.779,0,0,0,.691,12.967c.863,4.15.174,8.817.346,9.51s5.187.172,5.359-1.039c0,0,.693-7.433,1.039-8.47s.51-14.2.51-14.2.344-10.2.691-11.237.871-23.342-1.383-25.925-1.383-9.163-1.383-9.163Z" transform="translate(-505.262 -354.582)" fill="#3f3d56"/>
      <path id="Path_2030" data-name="Path 2030" d="M581.357,269.615a21.518,21.518,0,0,0-1.686,3.734,7.168,7.168,0,0,0-.163,4.043,10.023,10.023,0,0,0,1.115,2.331,8,8,0,0,0,1.41,1.882c1.307,1.194,3.207,1.433,4.972,1.621a2.518,2.518,0,0,0,.913-.015,1.725,1.725,0,0,0,.654-.357,5.189,5.189,0,0,0,1.407-2.614,43.14,43.14,0,0,0,1.442-7,3.246,3.246,0,0,0,0-1.133,5.689,5.689,0,0,0-1.054-1.723,4.393,4.393,0,0,1-.749-2.266,1.848,1.848,0,0,0-.248-1.131,1.525,1.525,0,0,0-.586-.362c-1.03-.436-2.059-.871-3.091-1.29-.623-.257-1.743-.941-2.4-.436-.56.436-.29,1.447-.529,2.052A28.8,28.8,0,0,1,581.357,269.615Z" transform="translate(-525.831 -230.079)" fill="#fbbebe"/>
      <path id="Path_2031" data-name="Path 2031" d="M581.357,269.615a21.518,21.518,0,0,0-1.686,3.734,7.168,7.168,0,0,0-.163,4.043,10.023,10.023,0,0,0,1.115,2.331,8,8,0,0,0,1.41,1.882c1.307,1.194,3.207,1.433,4.972,1.621a2.518,2.518,0,0,0,.913-.015,1.725,1.725,0,0,0,.654-.357,5.189,5.189,0,0,0,1.407-2.614,43.14,43.14,0,0,0,1.442-7,3.246,3.246,0,0,0,0-1.133,5.689,5.689,0,0,0-1.054-1.723,4.393,4.393,0,0,1-.749-2.266,1.848,1.848,0,0,0-.248-1.131,1.525,1.525,0,0,0-.586-.362c-1.03-.436-2.059-.871-3.091-1.29-.623-.257-1.743-.941-2.4-.436-.56.436-.29,1.447-.529,2.052A28.8,28.8,0,0,1,581.357,269.615Z" transform="translate(-525.831 -230.079)" opacity="0.1"/>
      <circle id="Ellipse_103" data-name="Ellipse 103" cx="6.052" cy="6.052" r="6.052" transform="translate(56.286 27.813)" fill="#fbbebe"/>
      <path id="Path_2032" data-name="Path 2032" d="M586.094,326.361a9.661,9.661,0,0,1-6.259.521,34.442,34.442,0,0,1-5.4-1.54,5.789,5.789,0,0,0-.508,2.41,66.058,66.058,0,0,0,.6,7.486c.242,3.176,0,6.423.817,9.5a2.614,2.614,0,0,1,.584-1.425,3.232,3.232,0,0,1,.978-.719,7.8,7.8,0,0,1,5.355-.667c1.048.248,2.161.712,3.155.3a3.067,3.067,0,0,0,1.351-1.331,10.942,10.942,0,0,0,1.181-3.2,45.3,45.3,0,0,0,.819-8.826c.022-.791.362-3.142-.294-3.721-.46-.4-.595.172-.926.473A4.233,4.233,0,0,1,586.094,326.361Z" transform="translate(-521.631 -277.232)" fill="#f2f2f2"/>
      <path id="Path_2033" data-name="Path 2033" d="M555.363,282.831a1.3,1.3,0,0,0-1.444.05c-.444.268-.8.638-1.255.882-1.251.678-2.93.181-4.118.969-1.115.743-1.307,2.272-1.394,3.61a57.383,57.383,0,0,1-1.222,10.128,8.072,8.072,0,0,0-.4,2.662,7.061,7.061,0,0,0,.362,1.5l1.072,3.348a17.719,17.719,0,0,1,1.052,4.767,17.5,17.5,0,0,1-.712,4.741,55.6,55.6,0,0,0-1.466,9.348,6.569,6.569,0,0,0,.327,3.089,5.377,5.377,0,0,0,2.253,2.307c.932.564,1.945,1,2.858,1.6,1.832,1.2,3.3,3.1,5.447,3.6a7.407,7.407,0,0,0,3-.061s-.56-25.429-2.118-29.06-2.939-19.363-2.939-19.882S555.363,282.831,555.363,282.831Z" transform="translate(-499.419 -244.092)" fill="#ae4ec0"/>
      <path id="Path_2034" data-name="Path 2034" d="M622.055,287.36s8.181,0,9.392,4.322-3.457,11.411-3.457,11.411,1.9,14,2.765,15.387.521,4.139.521,4.139a11.441,11.441,0,0,1,.344,5.882,58.062,58.062,0,0,1-3.285,8.645s-3.457,0-4.322,2.074-1.037-8.991-1.037-8.991-3.111-20.228-2.939-21.437,1.037-11.239,1.383-14.006S622.519,288.4,622.055,287.36Z" transform="translate(-557.697 -247.789)" fill="#ae4ec0"/>
      <path id="Path_2035" data-name="Path 2035" d="M653,300.06s3.978,1.209,3.978,2.593,1.218,8.817,1.218,11.237-.519,2.767,0,3.632-5.531.518-5.531.518l-1.1-9.854Z" transform="translate(-582.359 -257.722)" fill="#ae4ec0"/>
      <path id="Path_2036" data-name="Path 2036" d="M547.741,354.426s7.782.518,9.165-.521,7.261,1.383,7.78,2.767-8.3,1.556-9.682,1.556-7.954,2.076-7.954,2.076Z" transform="translate(-500.617 -299.639)" fill="#a0616a"/>
      <path id="Path_2037" data-name="Path 2037" d="M468.484,724.159s-3.627,9.15-1.743,10.239,21.755.314,21.755.314,3.309-2.048-.473-3.468a12.972,12.972,0,0,1-5.2-1.418,30.331,30.331,0,0,1-4.416-3.625s-.157-3.468-1.418-2.68a3.237,3.237,0,0,0-1.418,2.207Z" transform="translate(-437.38 -588.837)" fill="#3f3d56"/>
      <path id="Path_2038" data-name="Path 2038" d="M468.484,724.159s-3.627,9.15-1.743,10.239,21.755.314,21.755.314,3.309-2.048-.473-3.468a12.972,12.972,0,0,1-5.2-1.418,30.331,30.331,0,0,1-4.416-3.625s-.157-3.468-1.418-2.68a3.237,3.237,0,0,0-1.418,2.207Z" transform="translate(-437.38 -588.837)" opacity="0.1"/>
      <path id="Path_2039" data-name="Path 2039" d="M442.021,736.748s-3.976,10.022-1.9,11.237,23.86.346,23.86.346,3.632-2.246-.518-3.8a14.236,14.236,0,0,1-5.706-1.556,32.9,32.9,0,0,1-4.841-3.982s-.172-3.8-1.556-2.939a3.547,3.547,0,0,0-1.556,2.42Z" transform="translate(-416.514 -598.628)" fill="#3f3d56"/>
      <path id="Path_2040" data-name="Path 2040" d="M493.745,432.176l-2.42,21.786s-.871,10.375-3.457,12.621c0,0,0,3.285-.871,4.322l-1.211,13.66s1.73,5.011,1.558,5.882.691,3.63.518,3.976-8.3,0-8.3,0l1.73-27.836,5.359-38.727Z" transform="translate(-447.831 -357.679)" fill="#3c354c"/>
      <path id="Path_2041" data-name="Path 2041" d="M493.745,432.176l-2.42,21.786s-.871,10.375-3.457,12.621c0,0,0,3.285-.871,4.322l-1.211,13.66s1.73,5.011,1.558,5.882.691,3.63.518,3.976-8.3,0-8.3,0l1.73-27.836,5.359-38.727Z" transform="translate(-447.831 -357.679)" opacity="0.1"/>
      <path id="Path_2042" data-name="Path 2042" d="M457.207,428.323s-1.9,17.808-2.767,21.612a49.092,49.092,0,0,0-1.037,7.608s-.172,5.534-1.73,7.089a4.669,4.669,0,0,0-1.381,3.453s-1.558,17.462-.693,19.538,1.73,3.8.871,5.185-10.375,1.383-10.375.346,0-1.9-.518-2.42,0-3.8,0-3.8-2.074-15.388-.172-19.882,2.767-16.775,2.767-16.775-1.383-14-3.113-16.252.346-10.2.346-10.2Z" transform="translate(-415.615 -354.52)" fill="#3c354c"/>
      <path id="Path_2043" data-name="Path 2043" d="M502.49,172.8a2.327,2.327,0,0,0,1.12.954,33.442,33.442,0,0,1,6.754,5.431,7.937,7.937,0,0,1,.316-5.366,2.769,2.769,0,0,0,.4-1.8,2.321,2.321,0,0,0-.871-1.05,27.145,27.145,0,0,0-2.673-1.823c-.654-.388-1.978-1.418-2.721-1.307a6.84,6.84,0,0,1-.5,2.832C504.2,170.893,502.566,172.969,502.49,172.8Z" transform="translate(-465.765 -154.293)" fill="#a0616a"/>
      <circle id="Ellipse_104" data-name="Ellipse 104" cx="7.089" cy="7.089" r="7.089" transform="translate(38.478 6.546)" fill="#a0616a"/>
      <path id="Path_2044" data-name="Path 2044" d="M454.13,199.982s1.209-6.052-2.248-8.126-7.433-4.494-7.433-4.494-1.211-.174-1.73,2.42c0,0-9.854,1.9-10.893,11.237s.693,23,.693,23-1.556,11.93-3.457,18.326c0,0-1.558,1.383,5.359-.691s19.017,5.882,19.017,5.882,1.211-1.211,1.211-2.076,1.383-5.882,1.383-5.882,1.209-21.265,1.728-23.686S455.685,200.328,454.13,199.982Z" transform="translate(-408.216 -169.574)" fill="#3f3d56"/>
      <path id="Path_2045" data-name="Path 2045" d="M456.363,220.047s9.507-5.534,7.605-12.623-6.05-9.335-6.05-9.335-6.743-2.248-12.448,5.011l.346,3.285s6.224-12.621,12.967-4.669S456.363,220.047,456.363,220.047Z" transform="translate(-421.168 -177.709)" fill="#ae4ec0"/>
      <path id="Path_2046" data-name="Path 2046" d="M387.226,223.57v28.35l-1.767,9.671-.826,4.508H378.59l-8.47-3.113V242.071s7.087-14.006,9.335-16.6S387.226,223.57,387.226,223.57Z" transform="translate(-362.233 -197.831)" fill="#ae4ec0"/>
      <path id="Path_2047" data-name="Path 2047" d="M51.506,292.66l-.824,4.508H44.63l-8.47-3.111Z" transform="translate(-28.282 -228.898)" opacity="0.1"/>
      <path id="Path_2048" data-name="Path 2048" d="M105.2,199.764l14.869-18.154-13.141,18.847-1.383.344Z" transform="translate(-82.281 -142.041)" fill="#ae4ec0"/>
      <path id="Path_2049" data-name="Path 2049" d="M507.565,120.107a2.956,2.956,0,0,1,1.392-.37,2.628,2.628,0,0,0,1.375-.41c.669-.514.719-1.508,1.209-2.194.708-1,2.122-1.115,3.344-1.068a3.706,3.706,0,0,0,2.179-.327,3.335,3.335,0,0,0,1.155-1.932,2.6,2.6,0,0,0-.218-2.579c-.436-.449-1.142-.538-1.634-.932a4.435,4.435,0,0,1-1-1.662,4.5,4.5,0,0,0-1.449-1.815,5.479,5.479,0,0,0-3.244-.778,25.489,25.489,0,0,1-3.388.022,10.387,10.387,0,0,0-2.752-.283,3.941,3.941,0,0,0-2.71,2.085,11.593,11.593,0,0,0-1.061,3.362l-.654,3.144a8.357,8.357,0,0,0-.248,2.959c.322,2.039,2.126,3.66,2.25,5.719a3.51,3.51,0,0,1,2.144-2.547.678.678,0,0,1,.436-.054c.179.059.283.237.4.388.3.394,1.227.991,1.743.712C507.325,121.294,506.973,120.51,507.565,120.107Z" transform="translate(-463.669 -105.74)" fill="#3f3d56"/>
      <path id="Path_2050" data-name="Path 2050" d="M722.727,575.294s-4.669.172-5.359,5.531,0,30.256,0,30.256,5.359,3.976,11.93,3.457,17.115-2.42,17.115-2.42V582.925a7.629,7.629,0,0,0-7.987-7.66,2.846,2.846,0,0,0-.311.024Z" transform="translate(-633.59 -472.961)" fill="#3c354c"/>
      <circle id="Ellipse_105" data-name="Ellipse 105" cx="3.111" cy="3.111" r="3.111" transform="translate(92.769 139.332)" fill="#3f3d56"/>
      <circle id="Ellipse_106" data-name="Ellipse 106" cx="3.111" cy="3.111" r="3.111" transform="translate(109.712 137.948)" fill="#3f3d56"/>
      <path id="Path_2051" data-name="Path 2051" d="M452.948,313.505s-1.211,7.605,3.8,6.915c0,0,2.595-.346,2.941,0s13.139-1.9,14.869-3.8c0,0,2.074-.691,3.111.346s11.411,2.074,8.3-1.039-7.952-3.8-7.952-3.8l-6.571.344s-3.457,1.039-5.531,0-7.958-.68-7.958-.68Z" transform="translate(-426.916 -266.845)" fill="#a0616a"/>
      <path id="Path_2052" data-name="Path 2052" d="M458.01,209.59s-7.78.871-7.78,12.1V236.04s4.322-1.9,5.187-1.73,4.322-2.248,4.322-2.248,3.976-9.333,3.63-11.926S463.2,209.934,458.01,209.59Z" transform="translate(-424.891 -186.962)" fill="#3f3d56"/>
      <path id="Path_2053" data-name="Path 2053" d="M287.57,231.61l-7.78,5.534,4.841.518,6.743-5.706Z" transform="translate(-218.835 -181.148)" fill="#3f3d56"/>
      <path id="Path_2054" data-name="Path 2054" d="M640.461,356.178s1.9,5.882-.691,7.608-6.917-6.052-6.917-6.052-4.669-5.531-1.556-6.743,4.383,4.063,4.383,4.063l4.083,3.545Z" transform="translate(-565.674 -297.416)" fill="#fbbebe"/>
      <ellipse id="Ellipse_107" data-name="Ellipse 107" cx="6.915" cy="4.409" rx="6.915" ry="4.409" transform="translate(56.029 24.959)" fill="#3f3d56"/>
      <circle id="Ellipse_108" data-name="Ellipse 108" cx="5.013" cy="5.013" r="5.013" transform="translate(59.14 13.724)" fill="#3f3d56"/>
      <ellipse id="Ellipse_109" data-name="Ellipse 109" cx="6.656" cy="3.457" rx="6.656" ry="3.457" transform="translate(38.912 5.77)" fill="#3f3d56"/>
      <ellipse id="Ellipse_110" data-name="Ellipse 110" cx="2.333" cy="5.793" rx="2.333" ry="5.793" transform="translate(37.01 4.038)" fill="#3f3d56"/>
      <path id="Path_2055" data-name="Path 2055" d="M345.077,683.651c.654-1.2-.087-2.671-.932-3.743s-1.878-2.179-1.856-3.549c.033-1.961,2.113-3.118,3.776-4.157a18.4,18.4,0,0,0,3.39-2.725,4.917,4.917,0,0,0,1.041-1.394,5.659,5.659,0,0,0,.314-2.479q-.109-4.2-.416-8.383" transform="translate(-340.465 -537.071)" fill="none" stroke="#3f3d56" stroke-miterlimit="10" stroke-width="4"/>
      <path id="Path_2056" data-name="Path 2056" d="M372.111,646.054a3.05,3.05,0,0,0-1.525-2.505L369.9,644.9l.022-1.638a3.05,3.05,0,1,0,2.187,2.789Z" transform="translate(-359.022 -526.06)" fill="#57b894"/>
      <path id="Path_2057" data-name="Path 2057" d="M348.319,735.539a3.05,3.05,0,1,1,.148-2.462l-1.911,1.553,2.1-.488a3.026,3.026,0,0,1-.34,1.4Z" transform="translate(-340.676 -594.848)" fill="#57b894"/>
      <path id="Path_2058" data-name="Path 2058" d="M350.512,702.316a3.05,3.05,0,0,1-3.2-2.913,3.011,3.011,0,0,1,.264-1.392,3.063,3.063,0,0,1,1.961-1.695l-.015,1.261.691-1.37h0a3.05,3.05,0,0,1,3.2,2.913,3.016,3.016,0,0,1-.131,1.044A3.05,3.05,0,0,1,350.512,702.316Z" transform="translate(-344.395 -567.561)" fill="#57b894"/>
      <path id="Path_2059" data-name="Path 2059" d="M384.757,679.7a3.05,3.05,0,1,1,1.353-5.723l-.54,1.481,1.111-1.068a3.05,3.05,0,0,1-1.924,5.309Z" transform="translate(-371.209 -549.882)" fill="#57b894"/>
      <path id="Path_2060" data-name="Path 2060" d="M371.75,652.875c-.7.078-1.392.3-2.1.342a2.279,2.279,0,0,1-1.932-.678,9.272,9.272,0,0,1-.566-.993,2.19,2.19,0,0,0-.769-.725,3.05,3.05,0,1,0,5.715,2.03C371.981,652.855,371.866,652.864,371.75,652.875Z" transform="translate(-359.073 -532.065)" opacity="0.1"/>
      <path id="Path_2061" data-name="Path 2061" d="M384.634,685.947a3.063,3.063,0,0,1-2.908-4.357,2.244,2.244,0,0,1,.616.617,9.836,9.836,0,0,0,.606,1.011,2.492,2.492,0,0,0,2.026.708c.736-.035,1.451-.242,2.179-.309.1,0,.207-.017.309-.02A3.05,3.05,0,0,1,384.634,685.947Z" transform="translate(-371.085 -556.132)" opacity="0.1"/>
      <path id="Path_2062" data-name="Path 2062" d="M350.512,708.8a3.05,3.05,0,0,1-3.2-2.913,3.011,3.011,0,0,1,.264-1.392,2.466,2.466,0,0,1,.654.621c.237.335.386.721.654,1.03a2.824,2.824,0,0,0,2.166.758c.782-.02,1.486-.2,2.237-.259A3.05,3.05,0,0,1,350.512,708.8Z" transform="translate(-344.395 -574.051)" opacity="0.1"/>
      <path id="Path_2063" data-name="Path 2063" d="M348.034,742.555a3.053,3.053,0,1,1-5.573-2.495,3.1,3.1,0,0,1,.671.6,12.44,12.44,0,0,0,.817,1.089,3.808,3.808,0,0,0,2.534.891,13.522,13.522,0,0,0,1.551-.083Z" transform="translate(-340.391 -601.863)" opacity="0.1"/>
      <path id="Path_2064" data-name="Path 2064" d="M333.92,767.516a8.839,8.839,0,0,0,3.142-.593c.728-.518,3.7-1.137,3.893-.3s3.625,4.139.9,4.152-6.331-.425-7.057-.871S333.92,767.516,333.92,767.516Z" transform="translate(-333.92 -622.317)" fill="#656380"/>
      <path id="Path_2065" data-name="Path 2065" d="M341.9,775.134c-2.725.022-6.331-.425-7.056-.871-.553-.335-.773-1.545-.847-2.1h-.081s.152,1.945.871,2.4,4.331.889,7.056.872c.786,0,1.057-.285,1.044-.7C342.789,774.972,342.491,775.129,341.9,775.134Z" transform="translate(-333.92 -626.97)" opacity="0.2"/>
    </g>
  </g>
</svg>
